<?xml version="1.0"?>
<svg xmlns="http://www.w3.org/2000/svg" viewBox="0 0 50 50" fill="#ffffff" width="55px" height="55px">
    <path d="M 29.638672 19.832031 L 25.330078 28.347656 L 23.916016 26.261719 C 24.376016 26.047719 24.773406 25.715828 25.066406 25.298828 C 25.357406 24.857828 25.505281 24.336641 25.488281 23.806641 C 25.492281 23.442641 25.429734 23.080234 25.302734 22.740234 C 25.183734 22.431234 25.004391 22.151062 24.775391 21.914062 C 24.460391 21.610063 24.083922 21.380188 23.669922 21.242188 C 23.101922 21.063187 22.506109 20.983906 21.912109 21.003906 L 18.021484 21.003906 L 18 21.003906 L 18 29 L 20.662109 29 L 20.662109 26.697266 L 21.232422 26.697266 L 22.736328 29 L 25.773438 29 L 27.759766 29 L 29.638672 25.287109 L 31.517578 29 L 34.28125 29 L 29.638672 19.832031 z M 43.357422 19.832031 L 38.707031 29 L 41.472656 29 L 43.357422 25.287109 L 45.236328 29 L 48 29 L 43.357422 19.832031 z M 32 21 L 36.421875 30.167969 L 40.841797 21 L 38.210938 21 L 36.421875 24.710938 L 34.632812 21 L 32 21 z M 5.828125 21.001953 C 5.337125 20.993953 4.8489062 21.061172 4.3789062 21.201172 C 3.9929063 21.317172 3.6352187 21.505859 3.3242188 21.755859 C 3.0462187 21.982859 2.8247813 22.267844 2.6757812 22.589844 C 2.5267812 22.912844 2.450125 23.263188 2.453125 23.617188 C 2.442125 23.978187 2.5385156 24.334531 2.7285156 24.644531 C 2.9145156 24.929531 3.1649375 25.16875 3.4609375 25.34375 C 3.7909375 25.53875 4.145625 25.691875 4.515625 25.796875 C 4.922625 25.916875 5.350875 26.020375 5.796875 26.109375 C 6.094875 26.154375 6.3879687 26.233797 6.6679688 26.341797 C 6.7959688 26.380797 6.8854375 26.489141 6.8984375 26.619141 C 6.8974375 26.723141 6.8352344 26.816328 6.7402344 26.861328 C 6.5742344 26.931328 6.3948437 26.960266 6.2148438 26.947266 C 5.7318437 26.945266 5.2500625 26.874328 4.7890625 26.736328 C 4.2930625 26.587328 3.8308281 26.350109 3.4238281 26.037109 L 2 27.6875 C 2.528 28.1345 3.1464531 28.468922 3.8144531 28.669922 C 4.5554531 28.894922 5.3275156 29.005047 6.1035156 28.998047 C 6.5955156 29.009047 7.0874531 28.953125 7.5644531 28.828125 C 7.9604531 28.724125 8.3340156 28.550453 8.6660156 28.314453 C 8.9640156 28.095453 9.2060469 27.811328 9.3730469 27.486328 C 9.5490469 27.131328 9.6312344 26.739703 9.6152344 26.345703 C 9.6212344 26.007703 9.5390469 25.671047 9.3730469 25.373047 C 9.2000469 25.089047 8.9627344 24.848922 8.6777344 24.669922 C 8.3507344 24.460922 7.9940938 24.2985 7.6210938 24.1875 C 7.1640937 24.0535 6.7004687 23.946188 6.2304688 23.867188 C 5.9404688 23.823188 5.6577187 23.745719 5.3867188 23.636719 C 5.2677188 23.595719 5.1829219 23.491141 5.1699219 23.369141 C 5.1699219 23.272141 5.2245 23.184672 5.3125 23.138672 C 5.4475 23.070672 5.599 23.041734 5.75 23.052734 C 6.155 23.057734 6.5554062 23.118328 6.9414062 23.236328 C 7.3724063 23.362328 7.7805313 23.560359 8.1445312 23.818359 L 9.4414062 22.064453 C 8.9694062 21.705453 8.432375 21.435578 7.859375 21.267578 C 7.200375 21.079578 6.515125 20.989953 5.828125 21.001953 z M 9.6171875 21.003906 L 9.6171875 23.263672 L 11.921875 23.263672 L 11.921875 29 L 14.585938 29 L 14.585938 23.263672 L 16.972656 23.263672 L 16.972656 21.003906 L 9.6171875 21.003906 z M 20.685547 23.277344 L 21.845703 23.277344 C 22.104703 23.264344 22.361031 23.33075 22.582031 23.46875 C 22.767031 23.60075 22.872422 23.821781 22.857422 24.050781 C 22.866422 24.276781 22.762031 24.510531 22.582031 24.644531 C 22.361031 24.794531 22.089453 24.868766 21.814453 24.884766 L 20.685547 24.875 L 20.685547 23.277344 z" fill="#ffffff"/>
</svg>
